<svg xmlns="http://www.w3.org/2000/svg" xmlns:xlink="http://www.w3.org/1999/xlink" width="1000" zoomAndPan="magnify" viewBox="0 0 750 374.999991" height="500" preserveAspectRatio="xMidYMid meet" version="1.0"><defs><g/><clipPath id="da684bf05c"><path d="M 52.878906 85.402344 L 229.878906 85.402344 L 229.878906 262.402344 L 52.878906 262.402344 Z M 52.878906 85.402344 " clip-rule="nonzero"/></clipPath></defs><rect x="-75" width="900" fill="#ffffff" y="-37.499999" height="449.999989" fill-opacity="1"/><rect x="-75" width="900" fill="#ffffff" y="-37.499999" height="449.999989" fill-opacity="1"/><g clip-path="url(#da684bf05c)"><path fill="#098fff" d="M 99.410156 174.015625 C 99.410156 197.121094 118.367188 216.078125 141.472656 216.078125 C 163.054688 216.078125 181.023438 199.53125 183.289062 178.480469 L 122.90625 178.480469 C 122.90625 165.617188 133.324219 155.199219 146.1875 155.199219 L 206.820312 155.199219 L 206.820312 173.980469 C 206.820312 209.84375 177.335938 239.292969 141.507812 239.292969 C 105.648438 239.292969 76.199219 209.808594 76.199219 173.980469 C 76.199219 138.117188 105.683594 108.667969 141.507812 108.667969 L 230.101562 108.667969 C 230.066406 95.839844 219.648438 85.421875 206.785156 85.421875 L 141.472656 85.421875 C 92.535156 85.421875 52.878906 125.078125 52.878906 174.015625 C 52.878906 222.953125 92.535156 262.609375 141.472656 262.609375 C 190.414062 262.609375 230.066406 222.953125 230.066406 174.015625 L 230.066406 131.953125 L 141.472656 131.953125 C 118.367188 131.953125 99.410156 150.910156 99.410156 174.015625 Z M 99.410156 174.015625 " fill-opacity="1" fill-rule="nonzero"/></g><g fill="#098fff" fill-opacity="1"><g transform="translate(218.201776, 245.532434)"><g><path d="M 46.234375 -11.140625 L 19.78125 -11.140625 L 15.375 0 L -0.4375 0 L 25.65625 -60.484375 L 41.46875 -60.484375 L 66.96875 0 L 50.546875 0 Z M 41.734375 -22.8125 L 33.09375 -45.1875 L 24.28125 -22.8125 Z M 41.734375 -22.8125 "/></g></g></g><g fill="#098fff" fill-opacity="1"><g transform="translate(293.379559, 245.532434)"><g><path d="M 61.859375 0 L 48.296875 0 L 20.484375 -37.234375 L 20.484375 0 L 6.046875 0 L 6.046875 -60.484375 L 19.609375 -60.484375 L 47.515625 -23.15625 L 47.515625 -60.484375 L 61.859375 -60.484375 Z M 61.859375 0 "/></g></g></g><g fill="#098fff" fill-opacity="1"><g transform="translate(369.939917, 245.532434)"><g><path d="M 41.296875 -60.578125 L 41.296875 -19.609375 C 41.296875 -13.210938 39.4375 -8.226562 35.71875 -4.65625 C 32.007812 -1.09375 26.898438 0.6875 20.390625 0.6875 C 12.148438 0.6875 5.207031 -2.535156 -0.4375 -8.984375 L 6.65625 -19.265625 C 10.976562 -14.773438 15.210938 -12.53125 19.359375 -12.53125 C 23.671875 -12.53125 25.828125 -15.003906 25.828125 -19.953125 L 25.828125 -48.125 L 5.09375 -48.125 L 5.09375 -60.578125 Z M 41.296875 -60.578125 "/></g></g></g><g fill="#098fff" fill-opacity="1"><g transform="translate(424.897546, 245.532434)"><g><path d="M 53.40625 -48.390625 L 21.421875 -48.390625 L 21.421875 -36.375 L 50.28125 -36.375 L 50.28125 -24.28125 L 21.421875 -24.28125 L 21.421875 -12.09375 L 54.34375 -12.09375 L 54.34375 0 L 6.046875 0 L 6.046875 -60.484375 L 53.40625 -60.484375 Z M 53.40625 -48.390625 "/></g></g></g><g fill="#098fff" fill-opacity="1"><g transform="translate(491.779895, 245.532434)"><g><path d="M 46.234375 -11.140625 L 19.78125 -11.140625 L 15.375 0 L -0.4375 0 L 25.65625 -60.484375 L 41.46875 -60.484375 L 66.96875 0 L 50.546875 0 Z M 41.734375 -22.8125 L 33.09375 -45.1875 L 24.28125 -22.8125 Z M 41.734375 -22.8125 "/></g></g></g><g fill="#098fff" fill-opacity="1"><g transform="translate(566.957678, 245.532434)"><g><path d="M 61.859375 0 L 48.296875 0 L 20.484375 -37.234375 L 20.484375 0 L 6.046875 0 L 6.046875 -60.484375 L 19.609375 -60.484375 L 47.515625 -23.15625 L 47.515625 -60.484375 L 61.859375 -60.484375 Z M 61.859375 0 "/></g></g></g></svg>