<?xml version="1.0" encoding="utf-8"?>
<!-- Generator: Adobe Illustrator 27.5.0, SVG Export Plug-In . SVG Version: 6.00 Build 0)  -->
<svg version="1.1" xmlns="http://www.w3.org/2000/svg" xmlns:xlink="http://www.w3.org/1999/xlink" x="0px" y="0px"
	 viewBox="0 0 500 500" style="enable-background:new 0 0 500 500;" xml:space="preserve">
<g id="Background_Simple">
	<g>
		<path style="fill:#92E3A9;" d="M414.221,100.557c-8.893-15.127-21.333-27.51-37.059-37.608
			c-52.376-33.631-123.555-45.74-184.744-36.602c-43.711,6.528-72.852,36.244-91.495,74.961
			C78.895,147.057,58.898,192.572,33.822,237C5.036,288-7.868,341,54.667,385c54.119,38.078,121.981,28.2,184.015,26.98
			c20.558-0.405,41.263,0.277,61.495,4.255c40.198,7.906,79.246,36.005,118.781,9.764c30.051-19.946,47.752-57.635,56.328-91.775
			c5.112-20.349,9.13-42.799,7.238-64.396c-2.073-23.66-12.986-41.475-24.213-61.626c-14.123-25.348-25.157-52.441-32.777-80.479
			C422.838,117.809,419.053,108.778,414.221,100.557z"/>
		<path style="opacity:0.7;fill:#FFFFFF;" d="M414.221,100.557c-8.893-15.127-21.333-27.51-37.059-37.608
			c-52.376-33.631-123.555-45.74-184.744-36.602c-43.711,6.528-72.852,36.244-91.495,74.961
			C78.895,147.057,58.898,192.572,33.822,237C5.036,288-7.868,341,54.667,385c54.119,38.078,121.981,28.2,184.015,26.98
			c20.558-0.405,41.263,0.277,61.495,4.255c40.198,7.906,79.246,36.005,118.781,9.764c30.051-19.946,47.752-57.635,56.328-91.775
			c5.112-20.349,9.13-42.799,7.238-64.396c-2.073-23.66-12.986-41.475-24.213-61.626c-14.123-25.348-25.157-52.441-32.777-80.479
			C422.838,117.809,419.053,108.778,414.221,100.557z"/>
	</g>
</g>
<g id="Floor">
	<g>
		
			<line style="fill:none;stroke:#263238;stroke-linecap:round;stroke-miterlimit:10;" x1="469" y1="453.323" x2="476" y2="453.323"/>
		<line style="fill:none;stroke:#263238;stroke-linecap:round;stroke-miterlimit:10;" x1="23" y1="453.323" x2="461" y2="453.323"/>
	</g>
</g>
<g id="Picture">
	<g>
		
			<rect x="41.885" y="51.637" style="fill:none;stroke:#263238;stroke-linecap:round;stroke-miterlimit:10;" width="99" height="132.725"/>
		<rect x="45.885" y="57" style="fill:none;stroke:#263238;stroke-linecap:round;stroke-miterlimit:10;" width="91" height="122"/>
		
			<rect x="66.771" y="85" style="fill:none;stroke:#263238;stroke-linecap:round;stroke-miterlimit:10;" width="49.229" height="66"/>
	</g>
	<g>
		
			<rect x="398.885" y="149" style="fill:none;stroke:#263238;stroke-linecap:round;stroke-miterlimit:10;" width="36.074" height="48.363"/>
		
			<rect x="400.343" y="150.954" style="fill:none;stroke:#263238;stroke-linecap:round;stroke-miterlimit:10;" width="33.159" height="44.455"/>
		
			<rect x="407.953" y="161.157" style="fill:none;stroke:#263238;stroke-linecap:round;stroke-miterlimit:10;" width="17.938" height="24.049"/>
	</g>
	<g>
		
			<rect x="439.384" y="117.046" style="fill:none;stroke:#263238;stroke-linecap:round;stroke-miterlimit:10;" width="36.074" height="48.363"/>
		
			<rect x="440.841" y="119" style="fill:none;stroke:#263238;stroke-linecap:round;stroke-miterlimit:10;" width="33.159" height="44.454"/>
		
			<rect x="448.451" y="129.203" style="fill:none;stroke:#263238;stroke-linecap:round;stroke-miterlimit:10;" width="17.938" height="24.049"/>
	</g>
</g>
<g id="Device">
	<g>
		<rect x="153.627" y="51" style="fill:#FFFFFF;" width="217" height="402"/>
		<g>
			<path style="fill:#92E3A9;stroke:#263238;stroke-linecap:round;stroke-miterlimit:10;" d="M356.925,372H171.32
				c-1.488,0-2.695-1.207-2.695-2.695v-247.61c0-1.488,1.207-2.695,2.695-2.695h185.605c1.488,0,2.695,1.207,2.695,2.695v247.61
				C359.62,370.793,358.413,372,356.925,372z"/>
			<path style="fill:#FFFFFF;stroke:#263238;stroke-linecap:round;stroke-miterlimit:10;" d="M346.055,225.524H179.388
				c-0.552,0-1-0.448-1-1v-18.667c0-0.552,0.448-1,1-1h166.667c0.552,0,1,0.448,1,1v18.667
				C347.055,225.076,346.607,225.524,346.055,225.524z"/>
			<path style="fill:#FFFFFF;stroke:#263238;stroke-linecap:round;stroke-miterlimit:10;" d="M346.055,192.244H179.388
				c-0.552,0-1-0.448-1-1v-18.667c0-0.552,0.448-1,1-1h166.667c0.552,0,1,0.448,1,1v18.667
				C347.055,191.796,346.607,192.244,346.055,192.244z"/>
			<g>
				<rect x="200.021" y="194.021" style="opacity:0.3;" width="148.656" height="27.853"/>
				
					<rect x="198" y="192" style="fill:#FFFFFF;stroke:#263238;stroke-linecap:round;stroke-miterlimit:10;" width="148.908" height="27.853"/>
				<g>
					<path style="fill:#263238;" d="M202.158,203.593c0.156,0.012,0.324,0.012,0.468,0.012c0.612-0.036,0.983-0.324,0.983-1.176
						v-6.38h0.924v6.321c0,1.571-0.78,2.063-1.787,2.087c-0.216,0-0.384,0.012-0.588-0.012V203.593z"/>
					<path style="fill:#263238;" d="M205.386,198.076c0-1.283,0.636-2.111,1.919-2.111c1.295,0,1.931,0.828,1.931,2.111v4.342
						c0,1.271-0.636,2.111-1.931,2.111c-1.283,0-1.919-0.839-1.919-2.111V198.076z M206.31,202.465c0,0.768,0.324,1.212,0.996,1.212
						c0.684,0,0.996-0.444,0.996-1.212v-4.438c0-0.755-0.312-1.211-0.996-1.211c-0.671,0-0.996,0.456-0.996,1.211V202.465z"/>
					<path style="fill:#263238;" d="M211.061,200.667v3.778h-0.936v-8.396h0.936v3.778h2.063v-3.778h0.936v8.396h-0.936v-3.778
						H211.061z"/>
					<path style="fill:#263238;" d="M215.849,204.444h-0.839v-8.396h1.188l1.943,6.069v-6.069h0.828v8.396h-0.972l-2.147-6.788
						V204.444z"/>
					<path style="fill:#263238;" d="M225.424,198.064v0.228h-0.888v-0.275c0-0.756-0.288-1.2-0.959-1.2
						c-0.671,0-0.96,0.444-0.96,1.188c0,1.883,2.819,2.063,2.819,4.425c0,1.271-0.612,2.099-1.895,2.099
						c-1.284,0-1.883-0.828-1.883-2.099v-0.479h0.875v0.528c0,0.755,0.312,1.199,0.984,1.199c0.671,0,0.983-0.444,0.983-1.199
						c0-1.871-2.807-2.051-2.807-4.413c0-1.295,0.6-2.099,1.859-2.099C224.824,195.965,225.424,196.792,225.424,198.064z"/>
					<path style="fill:#263238;" d="M229.348,204.432h-0.9l-1.391-6.68v6.692h-0.815v-8.396h1.307l1.379,6.705l1.331-6.705h1.308
						v8.396h-0.888v-6.752L229.348,204.432z"/>
					<path style="fill:#263238;" d="M233.465,196.049v8.396h-0.935v-8.396H233.465z"/>
					<path style="fill:#263238;" d="M235.637,204.444V196.9h-1.547v-0.852h4.018v0.852h-1.547v7.544H235.637z"/>
					<path style="fill:#263238;" d="M239.681,200.667v3.778h-0.935v-8.396h0.935v3.778h2.063v-3.778h0.936v8.396h-0.936v-3.778
						H239.681z"/>
				</g>
			</g>
			<path style="fill:#FFFFFF;stroke:#263238;stroke-linecap:round;stroke-miterlimit:10;" d="M346.055,257.524H179.388
				c-0.552,0-1-0.448-1-1v-18.667c0-0.552,0.448-1,1-1h166.667c0.552,0,1,0.448,1,1v18.667
				C347.055,257.076,346.607,257.524,346.055,257.524z"/>
			<g>
				<g>
					<path style="fill:#E5E5E5;" d="M203.028,250.951h-0.839v-8.395h1.188l1.943,6.069v-6.069h0.828v8.395h-0.972l-2.147-6.788
						V250.951z"/>
					<path style="fill:#E5E5E5;" d="M210.095,246.274v0.839h-2.051v2.986h2.519v0.852h-3.454v-8.395h3.454v0.852h-2.519v2.867
						H210.095z"/>
					<path style="fill:#E5E5E5;" d="M213.659,250.951h-1.283l-1.151-8.395h0.912l0.983,7.148l0.936-7.136h0.923l0.923,7.148
						l0.948-7.16h0.815l-1.139,8.395h-1.235l-0.804-5.697L213.659,250.951z"/>
					<path style="fill:#E5E5E5;" d="M222.119,242.556c1.319,0,1.883,0.78,1.883,2.051v1.008c0,1.331-0.624,2.027-1.955,2.027h-0.828
						v3.31h-0.936v-8.395H222.119z M222.047,246.801c0.696,0,1.032-0.324,1.032-1.127v-1.115c0-0.768-0.276-1.151-0.959-1.151h-0.9
						v3.394H222.047z"/>
					<path style="fill:#E5E5E5;" d="M225.528,249.26l-0.324,1.691h-0.864l1.607-8.395h1.355l1.607,8.395h-0.936l-0.324-1.691
						H225.528z M225.648,248.457h1.871l-0.947-4.845L225.648,248.457z"/>
					<path style="fill:#E5E5E5;" d="M233.279,244.571v0.227h-0.888v-0.276c0-0.755-0.288-1.199-0.96-1.199
						c-0.671,0-0.96,0.444-0.96,1.188c0,1.883,2.819,2.063,2.819,4.426c0,1.271-0.612,2.099-1.895,2.099
						c-1.284,0-1.883-0.828-1.883-2.099v-0.48h0.876v0.528c0,0.755,0.312,1.199,0.984,1.199c0.671,0,0.983-0.444,0.983-1.199
						c0-1.871-2.807-2.051-2.807-4.413c0-1.295,0.6-2.099,1.859-2.099C232.679,242.472,233.279,243.299,233.279,244.571z"/>
					<path style="fill:#E5E5E5;" d="M237.742,244.571v0.227h-0.888v-0.276c0-0.755-0.288-1.199-0.96-1.199
						c-0.671,0-0.96,0.444-0.96,1.188c0,1.883,2.819,2.063,2.819,4.426c0,1.271-0.612,2.099-1.895,2.099
						c-1.284,0-1.883-0.828-1.883-2.099v-0.48h0.876v0.528c0,0.755,0.312,1.199,0.984,1.199c0.671,0,0.983-0.444,0.983-1.199
						c0-1.871-2.807-2.051-2.807-4.413c0-1.295,0.6-2.099,1.859-2.099C237.143,242.472,237.742,243.299,237.742,244.571z"/>
					<path style="fill:#E5E5E5;" d="M240.803,250.951h-1.283l-1.151-8.395h0.912l0.983,7.148l0.936-7.136h0.923l0.923,7.148
						l0.947-7.16h0.816l-1.139,8.395h-1.235l-0.804-5.697L240.803,250.951z"/>
					<path style="fill:#E5E5E5;" d="M245.497,244.583c0-1.283,0.635-2.111,1.919-2.111c1.295,0,1.931,0.828,1.931,2.111v4.342
						c0,1.271-0.636,2.111-1.931,2.111c-1.284,0-1.919-0.839-1.919-2.111V244.583z M246.42,248.972c0,0.768,0.324,1.212,0.996,1.212
						c0.684,0,0.995-0.444,0.995-1.212v-4.438c0-0.755-0.311-1.211-0.995-1.211c-0.672,0-0.996,0.456-0.996,1.211V248.972z"/>
					<path style="fill:#E5E5E5;" d="M252.107,242.556c1.319,0,1.871,0.672,1.871,1.919v0.684c0,0.924-0.324,1.499-1.043,1.727
						c0.768,0.228,1.055,0.852,1.055,1.751v1.308c0,0.372,0.013,0.719,0.168,1.007h-0.947c-0.108-0.24-0.156-0.455-0.156-1.02
						v-1.319c0-0.947-0.443-1.247-1.223-1.247h-0.66v3.586h-0.936v-8.395H252.107z M251.867,246.514c0.744,0,1.187-0.24,1.187-1.151
						v-0.804c0-0.755-0.275-1.151-0.971-1.151h-0.912v3.106H251.867z"/>
					<path style="fill:#E5E5E5;" d="M256.93,242.556c1.308,0,1.907,0.792,1.907,2.087v4.234c0,1.283-0.6,2.075-1.907,2.075h-1.967
						v-8.395H256.93z M256.919,250.1c0.672,0,0.995-0.42,0.995-1.188v-4.317c0-0.768-0.323-1.188-1.007-1.188h-1.008v6.692H256.919z
						"/>
				</g>
				<g>
					<path style="fill:#E5E5E5;" d="M203.85,185.671h-0.84v-8.396h1.188l1.942,6.069v-6.069h0.828v8.396h-0.972l-2.146-6.788
						V185.671z"/>
					<path style="fill:#E5E5E5;" d="M208.877,183.98l-0.323,1.691h-0.863l1.606-8.396h1.355l1.607,8.396h-0.936L211,183.98H208.877z
						 M208.997,183.177h1.871l-0.947-4.845L208.997,183.177z"/>
					<path style="fill:#E5E5E5;" d="M216.088,185.659h-0.899l-1.392-6.68v6.692h-0.815v-8.396h1.308l1.379,6.705l1.331-6.705h1.308
						v8.396h-0.888v-6.753L216.088,185.659z"/>
					<path style="fill:#E5E5E5;" d="M222.256,180.994v0.839h-2.051v2.986h2.519v0.852h-3.454v-8.396h3.454v0.852h-2.519v2.867
						H222.256z"/>
				</g>
			</g>
			<g>
				<path style="fill:#263238;" d="M227.175,145.095v0.756h-0.888v-0.804c0-0.755-0.3-1.211-0.983-1.211
					c-0.672,0-0.984,0.456-0.984,1.211v4.438c0,0.756,0.312,1.211,0.984,1.211c0.684,0,0.983-0.456,0.983-1.211v-1.091h0.888v1.044
					c0,1.271-0.6,2.111-1.895,2.111c-1.283,0-1.883-0.839-1.883-2.111v-4.342c0-1.271,0.6-2.111,1.883-2.111
					C226.575,142.984,227.175,143.824,227.175,145.095z"/>
				<path style="fill:#263238;" d="M229.899,143.068c1.319,0,1.871,0.672,1.871,1.919v0.684c0,0.924-0.324,1.499-1.043,1.727
					c0.768,0.228,1.055,0.852,1.055,1.751v1.308c0,0.372,0.012,0.719,0.168,1.007h-0.947c-0.107-0.24-0.156-0.455-0.156-1.02v-1.319
					c0-0.947-0.443-1.247-1.223-1.247h-0.66v3.586h-0.936v-8.395H229.899z M229.659,147.026c0.744,0,1.188-0.24,1.188-1.151v-0.804
					c0-0.755-0.275-1.151-0.971-1.151h-0.912v3.106H229.659z"/>
				<path style="fill:#263238;" d="M235.743,146.786v0.839h-2.052v2.986h2.519v0.852h-3.454v-8.395h3.454v0.852h-2.519v2.867
					H235.743z"/>
				<path style="fill:#263238;" d="M238.024,149.772l-0.324,1.691h-0.863l1.607-8.395h1.355l1.607,8.395h-0.936l-0.324-1.691
					H238.024z M238.143,148.969h1.871l-0.947-4.845L238.143,148.969z"/>
				<path style="fill:#263238;" d="M242.895,151.463v-7.544h-1.547v-0.852h4.018v0.852h-1.547v7.544H242.895z"/>
				<path style="fill:#263238;" d="M248.991,146.786v0.839h-2.052v2.986h2.519v0.852h-3.454v-8.395h3.454v0.852h-2.519v2.867
					H248.991z"/>
				<path style="fill:#263238;" d="M253.671,148.453l-1.775-5.385h0.973l1.307,4.126l1.319-4.126h0.888l-1.787,5.385v3.01h-0.924
					V148.453z"/>
				<path style="fill:#263238;" d="M256.803,145.095c0-1.283,0.636-2.111,1.919-2.111c1.296,0,1.931,0.828,1.931,2.111v4.342
					c0,1.271-0.635,2.111-1.931,2.111c-1.283,0-1.919-0.839-1.919-2.111V145.095z M257.727,149.484c0,0.768,0.324,1.211,0.995,1.211
					c0.684,0,0.995-0.444,0.995-1.211v-4.438c0-0.755-0.311-1.211-0.995-1.211c-0.671,0-0.995,0.456-0.995,1.211V149.484z"/>
				<path style="fill:#263238;" d="M262.43,149.484c0,0.756,0.301,1.211,0.984,1.211c0.672,0,0.971-0.456,0.971-1.211v-6.417h0.876
					v6.369c0,1.271-0.588,2.122-1.883,2.122c-1.284,0-1.871-0.851-1.871-2.122v-6.369h0.923V149.484z"/>
				<path style="fill:#263238;" d="M268.058,143.068c1.319,0,1.871,0.672,1.871,1.919v0.684c0,0.924-0.323,1.499-1.044,1.727
					c0.768,0.228,1.057,0.852,1.057,1.751v1.308c0,0.372,0.012,0.719,0.167,1.007h-0.947c-0.108-0.24-0.155-0.455-0.155-1.02v-1.319
					c0-0.947-0.444-1.247-1.225-1.247h-0.659v3.586h-0.936v-8.395H268.058z M267.819,147.026c0.743,0,1.188-0.24,1.188-1.151v-0.804
					c0-0.755-0.276-1.151-0.973-1.151h-0.911v3.106H267.819z"/>
				<path style="fill:#263238;" d="M273.723,149.772l-0.324,1.691h-0.863l1.607-8.395h1.355l1.607,8.395h-0.935l-0.324-1.691
					H273.723z M273.842,148.969h1.871l-0.947-4.845L273.842,148.969z"/>
				<path style="fill:#263238;" d="M281.533,145.095v0.756h-0.888v-0.804c0-0.755-0.299-1.211-0.982-1.211
					c-0.672,0-0.984,0.456-0.984,1.211v4.438c0,0.756,0.313,1.211,0.984,1.211c0.684,0,0.982-0.456,0.982-1.211v-1.091h0.888v1.044
					c0,1.271-0.6,2.111-1.896,2.111c-1.283,0-1.883-0.839-1.883-2.111v-4.342c0-1.271,0.6-2.111,1.883-2.111
					C280.933,142.984,281.533,143.824,281.533,145.095z"/>
				<path style="fill:#263238;" d="M286.092,145.095v0.756h-0.887v-0.804c0-0.755-0.3-1.211-0.983-1.211
					c-0.672,0-0.983,0.456-0.983,1.211v4.438c0,0.756,0.312,1.211,0.983,1.211c0.684,0,0.983-0.456,0.983-1.211v-1.091h0.887v1.044
					c0,1.271-0.6,2.111-1.895,2.111c-1.283,0-1.883-0.839-1.883-2.111v-4.342c0-1.271,0.6-2.111,1.883-2.111
					C285.493,142.984,286.092,143.824,286.092,145.095z"/>
				<path style="fill:#263238;" d="M286.876,145.095c0-1.283,0.635-2.111,1.918-2.111c1.296,0,1.932,0.828,1.932,2.111v4.342
					c0,1.271-0.636,2.111-1.932,2.111c-1.283,0-1.918-0.839-1.918-2.111V145.095z M287.799,149.484c0,0.768,0.324,1.211,0.995,1.211
					c0.684,0,0.996-0.444,0.996-1.211v-4.438c0-0.755-0.313-1.211-0.996-1.211c-0.671,0-0.995,0.456-0.995,1.211V149.484z"/>
				<path style="fill:#263238;" d="M292.503,149.484c0,0.756,0.3,1.211,0.983,1.211c0.672,0,0.972-0.456,0.972-1.211v-6.417h0.875
					v6.369c0,1.271-0.588,2.122-1.883,2.122c-1.283,0-1.871-0.851-1.871-2.122v-6.369h0.924V149.484z"/>
				<path style="fill:#263238;" d="M297.087,151.463h-0.84v-8.395h1.188l1.943,6.069v-6.069h0.827v8.395h-0.972l-2.146-6.788
					V151.463z"/>
				<path style="fill:#263238;" d="M302.378,151.463v-7.544h-1.547v-0.852h4.018v0.852h-1.547v7.544H302.378z"/>
			</g>
			<g>
				<path style="fill:#263238;stroke:#263238;stroke-linecap:round;stroke-miterlimit:10;" d="M285.705,322.601H242.54
					c-1.312,0-2.376-1.064-2.376-2.376V304.78c0-1.312,1.064-2.376,2.376-2.376h43.165c1.312,0,2.376,1.064,2.376,2.376v15.444
					C288.081,321.537,287.017,322.601,285.705,322.601z"/>
				<g>
					<path style="fill:#FFFFFF;" d="M259.325,310.676v0.228h-0.888v-0.276c0-0.755-0.287-1.199-0.959-1.199
						c-0.672,0-0.96,0.444-0.96,1.188c0,1.883,2.819,2.063,2.819,4.426c0,1.272-0.612,2.099-1.896,2.099s-1.883-0.827-1.883-2.099
						v-0.479h0.875v0.527c0,0.756,0.313,1.199,0.984,1.199c0.671,0,0.983-0.443,0.983-1.199c0-1.871-2.807-2.051-2.807-4.413
						c0-1.296,0.6-2.1,1.858-2.1C258.726,308.576,259.325,309.405,259.325,310.676z"/>
					<path style="fill:#FFFFFF;" d="M261.103,315.366l-0.323,1.69h-0.864l1.607-8.396h1.355l1.607,8.396h-0.936l-0.324-1.69H261.103
						z M261.223,314.562h1.871l-0.947-4.846L261.223,314.562z"/>
					<path style="fill:#FFFFFF;" d="M265.627,308.66l1.367,7.305l1.355-7.305h0.863l-1.571,8.396h-1.379l-1.583-8.396H265.627z"/>
					<path style="fill:#FFFFFF;" d="M272.922,312.379v0.839h-2.051v2.986h2.519v0.852h-3.454v-8.396h3.454v0.852h-2.519v2.867
						H272.922z"/>
				</g>
			</g>
			<path style="fill:#263238;" d="M266.628,133.51c0-1.627-1.318-2.945-2.945-2.945c-1.627,0-2.945,1.319-2.945,2.945
				c0,1.626,1.319,2.945,2.945,2.945C265.309,136.456,266.628,135.137,266.628,133.51z"/>
			
				<line style="fill:#FFFFFF;stroke:#263238;stroke-linecap:round;stroke-miterlimit:10;" x1="198" y1="171.667" x2="198" y2="192"/>
			
				<line style="fill:#FFFFFF;stroke:#263238;stroke-linecap:round;stroke-miterlimit:10;" x1="198" y1="204.667" x2="198" y2="225"/>
			
				<line style="fill:#FFFFFF;stroke:#263238;stroke-linecap:round;stroke-miterlimit:10;" x1="198" y1="237" x2="198" y2="257.333"/>
			<path style="fill:#FFFFFF;stroke:#E5E5E5;stroke-miterlimit:10;" d="M182.469,186.005h10.356l-3.062-2.923
				c-0.336-0.321-0.721-0.556-1.13-0.71c1.052-0.437,1.792-1.472,1.792-2.682c0-1.604-1.301-2.905-2.905-2.905
				c-1.604,0-2.905,1.301-2.905,2.905c0,1.191,0.718,2.211,1.743,2.66c-0.521,0.178-1.009,0.471-1.405,0.909L182.469,186.005z"/>
			<g>
				<rect x="183.984" y="246.88" style="fill:#FFFFFF;stroke:#E5E5E5;stroke-miterlimit:10;" width="7.83" height="6.568"/>
				<path style="fill:none;stroke:#E5E5E5;stroke-miterlimit:10;" d="M183.984,246.88v-1.642c0-2.162,1.753-3.915,3.915-3.915l0,0
					c2.162,0,3.915,1.753,3.915,3.915v1.642"/>
			</g>
			<g>
				<rect x="183.226" y="212.275" style="fill:#FFFFFF;stroke:#E5E5E5;stroke-miterlimit:10;" width="10.104" height="6.82"/>
				<polyline style="fill:none;stroke:#E5E5E5;stroke-miterlimit:10;" points="183.226,212.275 188.278,215.685 193.33,212.275 				
					"/>
			</g>
			
				<rect x="184.311" y="275.866" style="fill:none;stroke:#263238;stroke-linecap:round;stroke-miterlimit:10;" width="8.19" height="8.19"/>
			
				<line style="fill:none;stroke:#263238;stroke-linecap:round;stroke-miterlimit:10;" x1="198.936" y1="276.744" x2="345.483" y2="276.744"/>
			
				<line style="fill:none;stroke:#263238;stroke-linecap:round;stroke-miterlimit:10;" x1="198.936" y1="283.179" x2="306.287" y2="283.179"/>
		</g>
		<polygon style="opacity:0.15;fill:#080808;" points="371.788,454.228 371.788,259.623 201.285,454.228 		"/>
		<g>
			<g>
				<rect x="166.294" y="83" style="fill:#263238;" width="46.979" height="13.333"/>
				<rect x="215.745" y="83" style="fill:#263238;" width="46.979" height="13.333"/>
				<rect x="265.197" y="83" style="fill:#263238;" width="46.979" height="13.333"/>
				<rect x="314.648" y="83" style="fill:#263238;" width="46.979" height="13.333"/>
			</g>
			
				<line style="fill:none;stroke:#FFFFFF;stroke-linecap:round;stroke-miterlimit:10;" x1="176.399" y1="90.188" x2="201.732" y2="90.188"/>
			
				<line style="fill:none;stroke:#FFFFFF;stroke-linecap:round;stroke-miterlimit:10;" x1="225.94" y1="90.188" x2="251.273" y2="90.188"/>
			
				<line style="fill:none;stroke:#FFFFFF;stroke-linecap:round;stroke-miterlimit:10;" x1="275.21" y1="90.188" x2="300.544" y2="90.188"/>
			
				<line style="fill:none;stroke:#FFFFFF;stroke-linecap:round;stroke-miterlimit:10;" x1="325.481" y1="90.188" x2="350.814" y2="90.188"/>
		</g>
		<g>
			<path style="fill:#263238;" d="M359.357,30.558H168.888c-9.545,0-17.283,7.738-17.283,17.282v404.585
				c0,9.545,7.738,17.282,17.283,17.282h190.469c9.545,0,17.283-7.738,17.283-17.282V47.84
				C376.639,38.295,368.902,30.558,359.357,30.558z M366.631,443.642H161.613V60.381h205.018V443.642z"/>
			<g>
				<g>
					
						<rect x="342.658" y="64.356" style="fill:none;stroke:#263238;stroke-width:0.8211;stroke-linecap:round;stroke-linejoin:round;stroke-miterlimit:10;" width="16.999" height="9.322"/>
					
						<rect x="342.658" y="64.356" style="fill:#263238;stroke:#263238;stroke-width:0.7251;stroke-linecap:round;stroke-linejoin:round;stroke-miterlimit:10;" width="13.257" height="9.322"/>
					
						<rect x="359.62" y="66.964" style="fill:#263238;stroke:#263238;stroke-width:0.7251;stroke-linecap:round;stroke-linejoin:round;stroke-miterlimit:10;" width="2.395" height="4.106"/>
				</g>
				<g>
					
						<rect x="166.229" y="67.248" style="fill:#263238;stroke:#263238;stroke-width:0.8831;stroke-linecap:round;stroke-linejoin:round;stroke-miterlimit:10;" width="3.116" height="5.343"/>
					
						<rect x="171.127" y="65.372" style="fill:#263238;stroke:#263238;stroke-width:0.8831;stroke-linecap:round;stroke-linejoin:round;stroke-miterlimit:10;" width="3.117" height="7.219"/>
					
						<rect x="176.024" y="63.155" style="fill:#263238;stroke:#263238;stroke-width:0.8831;stroke-linecap:round;stroke-linejoin:round;stroke-miterlimit:10;" width="3.117" height="9.436"/>
				</g>
			</g>
		</g>
	</g>
</g>
<g id="Plants">
	<g>
		<path style="fill:none;stroke:#263238;stroke-width:2;stroke-linecap:round;stroke-miterlimit:10;" d="M441.447,279.065
			c0,0-14.079-7.821-15.121,9.907c-1.043,17.729-3.65,132.964-3.65,132.964"/>
		<path style="fill:none;stroke:#263238;stroke-width:2;stroke-linecap:round;stroke-miterlimit:10;" d="M419.014,290.535
			c0,0,11.483,25.552,6.269,129.837"/>
		<g>
			<path style="fill:#92E3A9;" d="M430.295,282.634c0,0-5.385,3.451-8.45-0.499c-3.064-3.949,2.073-11.183-2.455-14.277
				c-4.528-3.094-12.344,1.627-12.344,1.627s6.019,1.768,5.826,5.054c-0.194,3.286-3.094,4.528-3.48,3.092
				c-0.386-1.436-3.257-8.671-8.145-5.662c-4.888,3.009-5.634,7.676-5.634,7.676s11.377-1.213,12.067,3.067
				c0.69,4.28-4.667-0.746-9.361-1.023c-4.694-0.277-8.974,0.413-8.671,3.257c0.303,2.844-0.443,7.511-0.443,7.511
				s3.977-3.534,9.141-3.229c5.164,0.305,4.97,3.591,0.276,3.314c-4.694-0.277-8.727,4.196-8.727,4.196s4.279,7.318,9.718,10.937
				c5.439,3.618,7.4,2.321,8.036-0.468c0.636-2.789-0.827-9.941,2.459-9.747c3.286,0.194-5.442,12.397-1.245,13.116
				c4.197,0.719,7.566-0.496,8.671-3.257c1.105-2.761,1.105-2.761,1.105-2.761s-1.462-7.152-0.827-9.941
				c0.636-2.789,1.408,0.083,2.153,3.424c0.745,3.341,1.213,11.377,2.649,10.991c1.436-0.386,6.021-6.24,7.098-8.531
				c1.077-2.292-6.046-9.307-5.963-10.715c0.083-1.408,5.578,1.271,6.434,2.735c0.856,1.464,1.684,3.397,1.684,3.397
				s3.424-2.153,3.343-8.753C435.128,280.564,430.295,282.634,430.295,282.634z"/>
			<path style="opacity:0.3;fill:#263238;" d="M430.295,282.634c0,0-5.385,3.451-8.45-0.499c-3.064-3.949,2.073-11.183-2.455-14.277
				c-4.528-3.094-12.344,1.627-12.344,1.627s6.019,1.768,5.826,5.054c-0.194,3.286-3.094,4.528-3.48,3.092
				c-0.386-1.436-3.257-8.671-8.145-5.662c-4.888,3.009-5.634,7.676-5.634,7.676s11.377-1.213,12.067,3.067
				c0.69,4.28-4.667-0.746-9.361-1.023c-4.694-0.277-8.974,0.413-8.671,3.257c0.303,2.844-0.443,7.511-0.443,7.511
				s3.977-3.534,9.141-3.229c5.164,0.305,4.97,3.591,0.276,3.314c-4.694-0.277-8.727,4.196-8.727,4.196s4.279,7.318,9.718,10.937
				c5.439,3.618,7.4,2.321,8.036-0.468c0.636-2.789-0.827-9.941,2.459-9.747c3.286,0.194-5.442,12.397-1.245,13.116
				c4.197,0.719,7.566-0.496,8.671-3.257c1.105-2.761,1.105-2.761,1.105-2.761s-1.462-7.152-0.827-9.941
				c0.636-2.789,1.408,0.083,2.153,3.424c0.745,3.341,1.213,11.377,2.649,10.991c1.436-0.386,6.021-6.24,7.098-8.531
				c1.077-2.292-6.046-9.307-5.963-10.715c0.083-1.408,5.578,1.271,6.434,2.735c0.856,1.464,1.684,3.397,1.684,3.397
				s3.424-2.153,3.343-8.753C435.128,280.564,430.295,282.634,430.295,282.634z"/>
			<path style="fill:none;stroke:#263238;stroke-linecap:round;stroke-miterlimit:10;" d="M402.994,298.109
				c3.512-4.342,8.687-10.216,13.025-13.02"/>
			<path style="fill:none;stroke:#263238;stroke-linecap:round;stroke-miterlimit:10;" d="M398.923,303.394
				c0,0,0.902-1.254,2.363-3.132"/>
			<path style="fill:none;stroke:#263238;stroke-linecap:round;stroke-miterlimit:10;" d="M418.31,286.166
				c0,0,5.218,7.374,6.183,14.967"/>
			<path style="fill:none;stroke:#263238;stroke-linecap:round;stroke-miterlimit:10;" d="M412.4,290.528
				c0,0,1.464-0.856,0.91,8.533"/>
			<path style="fill:none;stroke:#263238;stroke-linecap:round;stroke-miterlimit:10;" d="M416.213,281.803
				c0,0,2.983-2.65,1.41-7.925"/>
			
				<line style="fill:none;stroke:#263238;stroke-linecap:round;stroke-miterlimit:10;" x1="412.18" y1="286.276" x2="410.055" y2="282.382"/>
			<path style="fill:none;stroke:#263238;stroke-linecap:round;stroke-miterlimit:10;" d="M407.706,290.251
				c0,0-6.764-5.11-10.989-5.359"/>
		</g>
		<g>
			<path style="fill:#92E3A9;" d="M449.49,268.721c0,0-0.216,7.744-6.258,8.12c-6.043,0.376-9.784-9.698-15.967-7.273
				c-6.184,2.425-6.785,13.467-6.785,13.467s5.873-4.821,9.031-2.388s2.425,6.184,0.724,5.592
				c-1.701-0.592-10.902-2.65-11.221,4.295c-0.319,6.945,3.844,10.873,3.844,10.873s6.54-12.217,11.296-9.99
				c4.755,2.227-3.928,4.163-7.405,8.674c-3.477,4.511-5.704,9.267-2.65,10.902c3.054,1.635,7.218,5.563,7.218,5.563
				s-0.827-6.39,2.997-11.353c3.825-4.962,6.982-2.528,3.505,1.983c-3.477,4.511-1.747,11.597-1.747,11.597
				s10.244,0.704,17.574-2.275c7.33-2.979,7.368-5.827,5.009-8.364c-2.359-2.537-10.516-5.948-8.083-9.106
				c2.434-3.158,8.703,13.899,12.283,10.186c3.581-3.712,4.661-7.913,2.65-10.901c-2.011-2.988-2.011-2.988-2.011-2.988
				s-8.158-3.411-10.517-5.948c-2.359-2.537,1.043-1.353,4.896,0.178c3.853,1.532,12.218,6.54,12.81,4.839
				c0.592-1.701-2.143-10.281-3.703-12.922s-13.439-0.291-14.792-1.334c-1.353-1.043,5.075-4.718,7.123-4.577
				c2.049,0.141,4.549,0.629,4.549,0.629s0.178-4.896-6.485-9.313S449.49,268.721,449.49,268.721z"/>
			<path style="opacity:0.2;fill:#263238;" d="M449.49,268.721c0,0-0.216,7.744-6.258,8.12c-6.043,0.376-9.784-9.698-15.967-7.273
				c-6.184,2.425-6.785,13.467-6.785,13.467s5.873-4.821,9.031-2.388s2.425,6.184,0.724,5.592
				c-1.701-0.592-10.902-2.65-11.221,4.295c-0.319,6.945,3.844,10.873,3.844,10.873s6.54-12.217,11.296-9.99
				c4.755,2.227-3.928,4.163-7.405,8.674c-3.477,4.511-5.704,9.267-2.65,10.902c3.054,1.635,7.218,5.563,7.218,5.563
				s-0.827-6.39,2.997-11.353c3.825-4.962,6.982-2.528,3.505,1.983c-3.477,4.511-1.747,11.597-1.747,11.597
				s10.244,0.704,17.574-2.275c7.33-2.979,7.368-5.827,5.009-8.364c-2.359-2.537-10.516-5.948-8.083-9.106
				c2.434-3.158,8.703,13.899,12.283,10.186c3.581-3.712,4.661-7.913,2.65-10.901c-2.011-2.988-2.011-2.988-2.011-2.988
				s-8.158-3.411-10.517-5.948c-2.359-2.537,1.043-1.353,4.896,0.178c3.853,1.532,12.218,6.54,12.81,4.839
				c0.592-1.701-2.143-10.281-3.703-12.922s-13.439-0.291-14.792-1.334c-1.353-1.043,5.075-4.718,7.123-4.577
				c2.049,0.141,4.549,0.629,4.549,0.629s0.178-4.896-6.485-9.313S449.49,268.721,449.49,268.721z"/>
			<path style="fill:none;stroke:#263238;stroke-linecap:round;stroke-miterlimit:10;" d="M446.374,306.603
				c-1.953-6.475-4.307-15.661-4.158-21.915"/>
			<path style="fill:none;stroke:#263238;stroke-linecap:round;stroke-miterlimit:10;" d="M448.891,314.282
				c0,0-0.641-1.757-1.525-4.501"/>
			<path style="fill:none;stroke:#263238;stroke-linecap:round;stroke-miterlimit:10;" d="M444.857,283.128
				c0,0,10.939-0.198,19.2,4.012"/>
			<path style="fill:none;stroke:#263238;stroke-linecap:round;stroke-miterlimit:10;" d="M445.196,292.018
				c0,0,0.141-2.049,9.163,4.905"/>
			<path style="fill:none;stroke:#263238;stroke-linecap:round;stroke-miterlimit:10;" d="M439.059,282.254
				c0,0-0.621-4.793-6.974-6.813"/>
			
				<line style="fill:none;stroke:#263238;stroke-linecap:round;stroke-miterlimit:10;" x1="440.788" y1="289.34" x2="435.441" y2="288.814"/>
			<path style="fill:none;stroke:#263238;stroke-linecap:round;stroke-miterlimit:10;" d="M441.719,296.53
				c0,0-9.727,3.29-12.856,7.35"/>
		</g>
		<path style="fill:none;stroke:#263238;stroke-width:2;stroke-linecap:round;stroke-miterlimit:10;" d="M384.611,320.258
			c0,0,30.764,20.336,30.243,99.071"/>
		<g>
			<path style="fill:#92E3A9;" d="M422.542,314.886c0,0-0.98,8.915-7.988,8.779c-7.008-0.136-10.374-12.114-17.738-9.9
				c-7.364,2.215-9.1,14.9-9.1,14.9s7.233-5.009,10.647-1.903c3.414,3.107,2.215,7.364,0.308,6.521
				c-1.907-0.844-12.33-4.086-13.353,3.897c-1.024,7.984,3.41,12.91,3.41,12.91s8.7-13.481,13.977-10.462
				c5.277,3.019-4.926,4.434-9.364,9.311c-4.438,4.877-7.456,10.155-4.086,12.329c3.37,2.175,7.804,7.101,7.804,7.101
				s-0.352-7.452,4.53-12.817c4.882-5.365,8.296-2.259,3.858,2.619c-4.438,4.877-3.111,13.217-3.111,13.217
				s11.754,1.779,20.493-0.967c8.74-2.746,9.052-6.029,6.569-9.179c-2.483-3.15-11.574-7.857-8.467-11.271
				c3.107-3.414,8.731,16.86,13.213,12.914s6.125-8.691,4.086-12.329c-2.039-3.638-2.039-3.638-2.039-3.638
				s-9.091-4.706-11.574-7.856c-2.483-3.15,1.331-1.463,5.633,0.668c4.302,2.131,13.481,8.7,14.324,6.793
				c0.844-1.907-1.503-12.066-3.054-15.26c-1.551-3.194-15.48-1.604-16.943-2.935c-1.463-1.331,6.301-4.965,8.652-4.609
				s5.189,1.156,5.189,1.156s0.668-5.633-6.604-11.358C424.542,307.79,422.542,314.886,422.542,314.886z"/>
			<path style="opacity:0.3;fill:#263238;" d="M422.542,314.886c0,0-0.98,8.915-7.988,8.779c-7.008-0.136-10.374-12.114-17.738-9.9
				c-7.364,2.215-9.1,14.9-9.1,14.9s7.233-5.009,10.647-1.903c3.414,3.107,2.215,7.364,0.308,6.521
				c-1.907-0.844-12.33-4.086-13.353,3.897c-1.024,7.984,3.41,12.91,3.41,12.91s8.7-13.481,13.977-10.462
				c5.277,3.019-4.926,4.434-9.364,9.311c-4.438,4.877-7.456,10.155-4.086,12.329c3.37,2.175,7.804,7.101,7.804,7.101
				s-0.352-7.452,4.53-12.817c4.882-5.365,8.296-2.259,3.858,2.619c-4.438,4.877-3.111,13.217-3.111,13.217
				s11.754,1.779,20.493-0.967c8.74-2.746,9.052-6.029,6.569-9.179c-2.483-3.15-11.574-7.857-8.467-11.271
				c3.107-3.414,8.731,16.86,13.213,12.914s6.125-8.691,4.086-12.329c-2.039-3.638-2.039-3.638-2.039-3.638
				s-9.091-4.706-11.574-7.856c-2.483-3.15,1.331-1.463,5.633,0.668c4.302,2.131,13.481,8.7,14.324,6.793
				c0.844-1.907-1.503-12.066-3.054-15.26c-1.551-3.194-15.48-1.604-16.943-2.935c-1.463-1.331,6.301-4.965,8.652-4.609
				s5.189,1.156,5.189,1.156s0.668-5.633-6.604-11.358C424.542,307.79,422.542,314.886,422.542,314.886z"/>
			<path style="fill:none;stroke:#263238;stroke-linecap:round;stroke-miterlimit:10;" d="M415.372,358.305
				c-1.643-7.656-3.492-18.478-2.729-25.68"/>
			<path style="fill:none;stroke:#263238;stroke-linecap:round;stroke-miterlimit:10;" d="M417.551,367.403
				c0,0-0.573-2.088-1.335-5.338"/>
			<path style="fill:none;stroke:#263238;stroke-linecap:round;stroke-miterlimit:10;" d="M415.837,331.073
				c0,0,12.641,0.804,21.776,6.442"/>
			<path style="fill:none;stroke:#263238;stroke-linecap:round;stroke-miterlimit:10;" d="M415.389,341.364
				c0,0,0.356-2.351,10.111,6.525"/>
			<path style="fill:none;stroke:#263238;stroke-linecap:round;stroke-miterlimit:10;" d="M409.229,329.518
				c0,0-0.264-5.589-7.404-8.52"/>
			
				<line style="fill:none;stroke:#263238;stroke-linecap:round;stroke-miterlimit:10;" x1="410.556" y1="337.858" x2="404.435" y2="336.746"/>
			<path style="fill:none;stroke:#263238;stroke-linecap:round;stroke-miterlimit:10;" d="M410.951,346.241
				c0,0-11.534,2.878-15.528,7.268"/>
		</g>
		<path style="fill:none;stroke:#263238;stroke-width:2;stroke-linecap:round;stroke-miterlimit:10;" d="M396.604,382.308
			c0,0,19.814,15.121,21.9,37.543l-4.171-75.086"/>
		<path style="fill:none;stroke:#263238;stroke-width:2;stroke-linecap:round;stroke-miterlimit:10;" d="M444.576,371.358
			c-26.071-4.693-26.071,48.493-26.071,48.493"/>
		<path style="fill:none;stroke:#263238;stroke-width:2;stroke-linecap:round;stroke-miterlimit:10;" d="M421.633,419.329
			c0,0-15.121-110.021,28.679-110.021"/>
		<g>
			<path style="fill:#92E3A9;" d="M434.641,368.195c-3.561-4.006-11.129-4.006-15.58,6.232c-4.452,10.239-0.445,8.458-0.445,8.458
				s8.458-2.671,13.8-4.452c5.342-1.781,12.464-6.232,12.91-3.561c0.445,2.671-3.561,5.342-8.458,6.232
				c-4.897,0.89-17.806,4.452-16.471,7.122c1.335,2.671,4.452,10.684,4.452,10.684s6.232-5.342,12.019-8.903
				c5.787-3.561,9.348-2.226,6.232,1.781c-3.116,4.007-12.019,8.458-10.239,13.8c1.781,5.342,12.464,12.019,12.464,12.019
				s1.335-11.129,4.452-14.69c3.116-3.561,3.116,0.445,2.226,6.677c-0.89,6.232-0.89,8.013-0.89,8.013l12.464,4.452
				c0,0,4.452-6.677,6.677-8.903c2.226-2.226,2.226-2.226,2.226-2.226s-9.794-8.458-10.239-13.8c-0.445-5.342,6.677,0,8.903,0.89
				c2.226,0.89,5.787,7.122,5.787,7.122s2.226-10.239,2.671-13.8c0.445-3.561,0.445-3.561,0.445-3.561s-9.348-3.561-12.91-3.561
				c-3.561,0-5.342,2.671-5.342-0.89c0-3.561,3.561-5.787,7.568-5.342c4.006,0.445,10.684,2.671,10.684,2.671
				s2.671-2.226,1.781-8.903c-0.89-6.677-3.116-6.677-8.458-4.897c-5.342,1.781-8.903,5.787-12.91,5.787
				c-4.006,0-1.781-4.897,0.89-6.232c2.671-1.336,9.348-4.006,10.684-4.452c1.335-0.445-7.123-6.677-11.574-7.568
				c-4.452-0.89-10.215,2.246-9.793,6.677C451.557,370.421,438.202,372.202,434.641,368.195z"/>
			<path style="fill:none;stroke:#263238;stroke-linecap:round;stroke-miterlimit:10;" d="M463.297,414.03
				c0.133,1.341,0.228,2.683,0.279,4.023"/>
			<path style="fill:none;stroke:#263238;stroke-linecap:round;stroke-miterlimit:10;" d="M454.354,382.073
				c3.126,7.225,6.742,17.188,8.379,27.584"/>
			<path style="fill:none;stroke:#263238;stroke-linecap:round;stroke-miterlimit:10;" d="M452.751,378.5
				c-2.205-4.742-3.865-7.633-3.865-7.633s4.006-1.781,5.787-5.342c1.781-3.561,4.452-5.342,4.452-5.342"/>
			<path style="fill:none;stroke:#263238;stroke-linecap:round;stroke-miterlimit:10;" d="M433.306,386.002
				c0,0,16.026-6.677,16.026-5.342"/>
			<path style="fill:none;stroke:#263238;stroke-linecap:round;stroke-miterlimit:10;" d="M458.234,377.544
				c0,0,7.123-3.561,13.355-3.561"/>
			<path style="fill:none;stroke:#263238;stroke-linecap:round;stroke-miterlimit:10;" d="M455.563,388.227
				c0,0-4.006,3.116-8.458,8.458c-4.452,5.342-6.232,10.239-6.232,10.239"/>
			<path style="fill:none;stroke:#263238;stroke-linecap:round;stroke-miterlimit:10;" d="M460.46,390.008
				c0,0,9.348-2.671,14.245,1.781"/>
		</g>
		<g>
			<path style="fill:#92E3A9;" d="M477.393,329.858c-4.846-2.866-10.206-2.929-12.833-5.954c-2.626-3.025,2.53-4.555,5.29-3.413
				c2.759,1.141,9.154,4.433,10.365,5.149c1.212,0.717,0.373-9.756-1.873-13.701c-2.246-3.945-8.393-6.242-11.463-3.018
				c-6.475,6.801-16.575-2.117-15.884-7.432c0.691-5.316-4.27-11.03-14.92-7.68c-10.65,3.351-6.679,5.209-6.679,5.209
				s7.562,4.636,12.408,7.503c4.847,2.867,12.878,5.327,11.152,7.414c-1.725,2.087-6.368,0.813-10.251-2.301
				c-3.883-3.114-15.035-10.528-16.176-7.768c-1.142,2.759-5.149,10.365-5.149,10.365s8.119,1.204,14.602,3.24
				c6.483,2.035,7.809,5.6,2.741,5.873c-5.068,0.273-14.266-3.531-17.133,1.315c-2.866,4.846-0.905,17.292-0.905,17.292
				s9.279-6.287,14.011-6.269c4.732,0.018,1.707,2.645-3.583,6.058s-6.634,4.581-6.634,4.581l4.81,12.331
				c0,0,7.961-1.016,11.101-0.794c3.14,0.222,3.14,0.222,3.14,0.222s-0.033-12.94,3.709-16.778c3.742-3.838,4.378,5.042,5.164,7.307
				s-1.585,9.039-1.585,9.039s9.191-5.031,12.172-7.03c2.981-1.999,2.981-1.999,2.981-1.999s-3.439-9.394-5.774-12.083
				c-2.335-2.689-5.519-2.283-2.83-4.617s6.705-1.104,8.995,2.213c2.29,3.317,4.987,9.819,4.987,9.819s3.432,0.558,7.89-4.492
				C483.699,334.405,482.24,332.725,477.393,329.858z M435.265,344.107c-3.561-1.781,4.897-5.342,4.897-5.342
				C443.278,338.32,438.826,345.888,435.265,344.107z M441.262,327.488c-1.518-0.759,3.036-2.277,3.036-2.277
				C450.877,326.476,442.78,328.247,441.262,327.488z"/>
			<path style="fill:none;stroke:#263238;stroke-linecap:round;stroke-miterlimit:10;" d="M435.171,353.175
				c-0.926,0.979-1.877,1.931-2.855,2.848"/>
			<path style="fill:none;stroke:#263238;stroke-linecap:round;stroke-miterlimit:10;" d="M453.44,325.472
				c-3.407,7.097-8.559,16.358-15.337,24.411"/>
			<path style="fill:none;stroke:#263238;stroke-linecap:round;stroke-miterlimit:10;" d="M455.087,321.919
				c2.135-4.774,3.23-7.923,3.23-7.923s3.971,1.858,7.828,0.868c3.857-0.99,6.952-0.14,6.952-0.14"/>
			<path style="fill:none;stroke:#263238;stroke-linecap:round;stroke-miterlimit:10;" d="M436.674,312.153
				c0,0,15.548,7.724,14.54,8.599"/>
			<path style="fill:none;stroke:#263238;stroke-linecap:round;stroke-miterlimit:10;" d="M459.404,325.433
				c0,0,7.358,3.044,11.444,7.75"/>
			<path style="fill:none;stroke:#263238;stroke-linecap:round;stroke-miterlimit:10;" d="M449.585,330.42
				c0,0-4.98-0.983-11.932-0.842c-6.952,0.14-11.817,2.006-11.817,2.006"/>
			<path style="fill:none;stroke:#263238;stroke-linecap:round;stroke-miterlimit:10;" d="M451.451,335.285
				c0,0,8.145,5.308,7.994,11.924"/>
		</g>
		<g>
			<path style="fill:#92E3A9;" d="M408.221,391.541c-3.9-2.307-8.214-2.357-10.327-4.792c-2.114-2.435,2.036-3.665,4.257-2.747
				c2.22,0.918,7.366,3.567,8.342,4.144c0.975,0.577,0.3-7.851-1.507-11.026c-1.807-3.175-6.754-5.023-9.224-2.429
				c-5.211,5.473-13.339-1.703-12.783-5.981c0.556-4.278-3.436-8.877-12.007-6.18c-8.57,2.696-5.375,4.192-5.375,4.192
				s6.085,3.731,9.986,6.038c3.9,2.307,10.363,4.287,8.975,5.966c-1.388,1.68-5.125,0.654-8.249-1.852
				c-3.124-2.506-12.099-8.472-13.018-6.252c-0.919,2.221-4.144,8.342-4.144,8.342s6.534,0.969,11.751,2.607
				c5.217,1.638,6.284,4.507,2.206,4.727c-4.079,0.22-11.481-2.842-13.788,1.058c-2.307,3.9-0.728,13.916-0.728,13.916
				s7.467-5.06,11.276-5.045c3.808,0.015,1.373,2.128-2.884,4.875c-4.257,2.747-5.339,3.686-5.339,3.686l3.871,9.923
				c0,0,6.406-0.818,8.933-0.639c2.527,0.178,2.527,0.178,2.527,0.178s-0.027-10.414,2.984-13.502
				c3.011-3.089,3.523,4.058,4.156,5.88c0.633,1.822-1.275,7.274-1.275,7.274s7.396-4.049,9.795-5.657
				c2.399-1.608,2.399-1.608,2.399-1.608s-2.768-7.56-4.647-9.724c-1.879-2.164-4.441-1.837-2.277-3.716
				c2.164-1.879,5.396-0.889,7.239,1.781c1.843,2.67,4.013,7.902,4.013,7.902s2.762,0.449,6.35-3.615
				C413.296,395.2,412.121,393.847,408.221,391.541z M374.318,403.007c-2.866-1.433,3.941-4.299,3.941-4.299
				C380.767,398.35,377.184,404.44,374.318,403.007z M379.144,389.633c-1.222-0.611,2.443-1.832,2.443-1.832
				C386.882,388.819,380.366,390.244,379.144,389.633z"/>
			<path style="fill:none;stroke:#263238;stroke-linecap:round;stroke-miterlimit:10;" d="M374.242,410.305
				c-0.745,0.788-1.511,1.554-2.298,2.292"/>
			<path style="fill:none;stroke:#263238;stroke-linecap:round;stroke-miterlimit:10;" d="M388.944,388.011
				c-2.742,5.711-6.888,13.164-12.342,19.645"/>
			<path style="fill:none;stroke:#263238;stroke-linecap:round;stroke-miterlimit:10;" d="M390.27,385.152
				c1.719-3.842,2.6-6.376,2.6-6.376s3.196,1.495,6.299,0.699c3.104-0.797,5.595-0.113,5.595-0.113"/>
			<path style="fill:none;stroke:#263238;stroke-linecap:round;stroke-miterlimit:10;" d="M375.452,377.292
				c0,0,12.512,6.216,11.701,6.921"/>
			<path style="fill:none;stroke:#263238;stroke-linecap:round;stroke-miterlimit:10;" d="M393.744,387.979
				c0,0,5.922,2.449,9.21,6.237"/>
			<path style="fill:none;stroke:#263238;stroke-linecap:round;stroke-miterlimit:10;" d="M385.842,391.993
				c0,0-4.007-0.791-9.602-0.678c-5.595,0.113-9.51,1.614-9.51,1.614"/>
			<path style="fill:none;stroke:#263238;stroke-linecap:round;stroke-miterlimit:10;" d="M387.343,395.908
				c0,0,6.555,4.272,6.433,9.596"/>
		</g>
		<g>
			<path style="fill:#92E3A9;" d="M392.317,318.031c0,0-4.897,3.561-8.013,0c-3.116-3.561,1.336-10.684-3.116-13.355
				c-4.452-2.671-11.574,2.226-11.574,2.226s5.787,1.335,5.787,4.452c0,3.116-2.671,4.452-3.116,3.116
				c-0.445-1.336-3.561-8.013-8.013-4.897c-4.452,3.116-4.897,7.568-4.897,7.568s10.684-1.781,11.574,2.226
				c0.89,4.007-4.452-0.445-8.903-0.445c-4.452,0-8.458,0.89-8.013,3.561c0.445,2.671,0,7.123,0,7.123s3.561-3.561,8.458-3.561
				s4.897,3.116,0.445,3.116c-4.452,0-8.013,4.452-8.013,4.452s4.452,6.677,9.793,9.793c5.342,3.116,7.122,1.781,7.568-0.89
				c0.445-2.671-1.336-9.348,1.781-9.348c3.116,0-4.452,12.019-0.445,12.464c4.006,0.445,7.122-0.89,8.013-3.561
				c0.89-2.671,0.89-2.671,0.89-2.671s-1.781-6.677-1.335-9.348c0.445-2.671,1.335,0,2.226,3.116
				c0.89,3.116,1.781,10.684,3.116,10.238c1.335-0.445,5.342-6.232,6.232-8.458c0.89-2.226-6.232-8.458-6.232-9.794
				c0-1.335,5.342,0.89,6.232,2.226c0.89,1.336,1.781,3.116,1.781,3.116s3.116-2.226,2.671-8.458
				C396.769,315.806,392.317,318.031,392.317,318.031z"/>
			<path style="fill:none;stroke:#263238;stroke-linecap:round;stroke-miterlimit:10;" d="M367.38,334.177
				c3.077-4.298,7.64-10.139,11.583-13.03"/>
			<path style="fill:none;stroke:#263238;stroke-linecap:round;stroke-miterlimit:10;" d="M363.827,339.399
				c0,0,0.782-1.235,2.059-3.092"/>
			<path style="fill:none;stroke:#263238;stroke-linecap:round;stroke-miterlimit:10;" d="M381.188,322.038
				c0,0,5.342,6.677,6.677,13.8"/>
			<path style="fill:none;stroke:#263238;stroke-linecap:round;stroke-miterlimit:10;" d="M375.846,326.489
				c0,0,1.336-0.89,1.336,8.013"/>
			<path style="fill:none;stroke:#263238;stroke-linecap:round;stroke-miterlimit:10;" d="M378.963,318.031
				c0,0,2.671-2.671,0.89-7.568"/>
			
				<line style="fill:none;stroke:#263238;stroke-linecap:round;stroke-miterlimit:10;" x1="375.401" y1="322.483" x2="373.176" y2="318.922"/>
			<path style="fill:none;stroke:#263238;stroke-linecap:round;stroke-miterlimit:10;" d="M371.395,326.489
				c0,0-6.677-4.452-10.684-4.452"/>
		</g>
		
			<rect x="402.861" y="417.765" style="fill:#263238;stroke:#263238;stroke-width:2;stroke-linecap:round;stroke-miterlimit:10;" width="34.414" height="49.535"/>
	</g>
</g>
<g id="Character">
	<g>
		<g>
			
				<rect x="75.66" y="449.737" style="fill:#FFFFFF;stroke:#263238;stroke-linecap:round;stroke-miterlimit:10;" width="53.309" height="4.764"/>
			
				<rect x="75.66" y="426.145" style="fill:#FFFFFF;stroke:#263238;stroke-linecap:round;stroke-miterlimit:10;" width="53.309" height="4.764"/>
			<g>
				<path style="fill:#FFFFFF;stroke:#263238;stroke-linecap:round;stroke-miterlimit:10;" d="M75.206,470.204c-1.657,0-3-1.343-3-3
					v-41.728c0-16.852,10.677-31.527,26.568-36.521c2.104-0.661,3.45-0.901,3.596-0.927c1.629-0.285,3.185,0.813,3.466,2.445
					c0.282,1.631-0.81,3.181-2.438,3.466l0,0c-0.011,0.002-1.103,0.198-2.826,0.74c-13.378,4.203-22.366,16.579-22.366,30.796
					v41.728C78.206,468.861,76.863,470.204,75.206,470.204z"/>
			</g>
			<g>
				<path style="fill:#FFFFFF;stroke:#263238;stroke-linecap:round;stroke-miterlimit:10;" d="M130.783,470.204
					c-1.657,0-3-1.343-3-3v-41.728c0-14.217-8.988-26.593-22.367-30.796c-1.723-0.542-2.815-0.738-2.826-0.74
					c-1.629-0.289-2.719-1.843-2.434-3.472c0.285-1.629,1.835-2.724,3.461-2.439c0.147,0.025,1.492,0.266,3.596,0.927
					c15.892,4.993,26.568,19.669,26.568,36.521v41.728C133.783,468.861,132.44,470.204,130.783,470.204z"/>
			</g>
			<path style="fill:#FFFFFF;stroke:#263238;stroke-linecap:round;stroke-miterlimit:10;" d="M104.863,430.14h-1.765
				c-1.71,0-3.097-1.387-3.097-3.097v-65.388h7.959v65.388C107.96,428.753,106.574,430.14,104.863,430.14z"/>
			<path style="fill:#878787;stroke:#263238;stroke-linecap:round;stroke-miterlimit:10;" d="M123.917,358.508
				c-5.777-0.763-12.474-1.201-19.623-1.201c-7.149,0-13.846,0.439-19.623,1.201H64.96v7.799c0,4.971,17.61,9,39.333,9
				s39.333-4.029,39.333-9v-7.799H123.917z"/>
			
				<ellipse style="fill:#263238;stroke:#263238;stroke-linecap:round;stroke-miterlimit:10;" cx="104.294" cy="358.508" rx="39.333" ry="9"/>
		</g>
		<g>
			<path style="fill:#FFFFFF;stroke:#263238;stroke-linecap:round;stroke-miterlimit:10;" d="M88.296,364.256
				c0,0,8.361-2.601,11.705-2.601s11.891-0.372,15.793-0.186s4.459,0.372,9.848,0.372c5.388,0,10.219-3.159,15.05-8.547
				c4.831-5.388,5.946-15.607,4.088-20.81c-1.858-5.202-2.973-9.662-6.317-12.077c-3.344-2.415-20.81-4.088-33.63-3.344
				c-12.82,0.743-23.411,2.973-30.285,5.76c-6.875,2.787-8.547,6.503-8.175,9.104c0.372,2.601,4.088,18.394,6.503,23.783
				c2.415,5.388,6.503,7.432,7.432,7.432C81.235,363.141,88.296,364.256,88.296,364.256z"/>
			<path style="fill:none;stroke:#263238;stroke-linecap:round;stroke-miterlimit:10;" d="M112.078,350.878
				c0,0,3.344-13.749,12.077-18.023"/>
			<path style="fill:none;stroke:#263238;stroke-linecap:round;stroke-miterlimit:10;" d="M86.252,330.812
				c0,0,7.246,3.716,8.547,11.891"/>
			
				<line style="fill:none;stroke:#263238;stroke-linecap:round;stroke-miterlimit:10;" x1="100.744" y1="320.035" x2="101.674" y2="326.724"/>
			
				<line style="fill:none;stroke:#263238;stroke-linecap:round;stroke-miterlimit:10;" x1="106.318" y1="325.795" x2="105.204" y2="319.664"/>
		</g>
		<g>
			<path style="fill:#92E3A9;stroke:#263238;stroke-linecap:round;stroke-miterlimit:10;" d="M95.62,209.309
				c0,0,1.505,6.69-0.167,8.697c-1.673,2.007-12.711,7.192-20.404,11.206c-7.693,4.014-19.735,8.028-22.913,15.888
				c-3.178,7.861-2.174,28.599-2.174,34.118c0,5.519,4.348,31.442,7.024,32.78c2.676,1.338,9.533,0.502,9.533,0.502
				s-0.167,3.01-1.672,8.864c-1.505,5.854-1.673,7.526-0.167,7.861c1.505,0.334,1.171-0.335,11.874-3.345
				c10.704-3.01,24.251-7.192,35.791-5.686c11.54,1.505,22.244,4.014,25.087,4.014c2.843,0,5.017,0.836,5.017-4.85
				s-2.676-13.881-1.171-18.397c1.505-4.516,9.7-32.948,9.7-32.948c10.027-13.178,3.503,25.684,6.69-19.568
				c0.836-11.875-4.014-17.226-11.373-20.07c-7.359-2.843-20.07-5.854-23.916-8.362c-3.847-2.509-2.509-8.864-2.509-8.864
				L95.62,209.309z"/>
			<g>
				<path style="fill:none;stroke:#263238;stroke-linecap:round;stroke-miterlimit:10;" d="M115.511,315.009
					c-1.405,0.146-2.162,0.001-2.162,0.001"/>
				<path style="fill:none;stroke:#263238;stroke-linecap:round;stroke-miterlimit:10;" d="M139.606,288.919
					c0,0-7.526,18.23-14.718,22.578c-2.662,1.61-4.935,2.509-6.742,3.003"/>
				<path style="fill:none;stroke:#263238;stroke-linecap:round;stroke-miterlimit:10;" d="M68.937,286.893
					c0,0-0.683-26.478-5.979-40.486"/>
				<path style="fill:none;stroke:#263238;stroke-linecap:round;stroke-miterlimit:10;" d="M58.591,252.606
					c2.065,6.423,5.098,14.733,7.783,17.717"/>
				<path style="fill:none;stroke:#263238;stroke-linecap:round;stroke-miterlimit:10;" d="M56.125,244.357
					c0,0,0.409,1.512,1.097,3.822"/>
				<path style="fill:none;stroke:#263238;stroke-linecap:round;stroke-miterlimit:10;" d="M56.133,269.971
					c3.198,4.15,7.885,8.991,12.291,8.893"/>
				<path style="fill:none;stroke:#263238;stroke-linecap:round;stroke-miterlimit:10;" d="M52.196,264.173
					c0,0,0.842,1.466,2.236,3.471"/>
				<path style="fill:none;stroke:#263238;stroke-linecap:round;stroke-miterlimit:10;" d="M86.54,307.773
					c2.628-1.832,4.836-3.517,5.629-4.31"/>
				<path style="fill:none;stroke:#263238;stroke-linecap:round;stroke-miterlimit:10;" d="M72.353,312.859
					c0,0-0.854,1.708,1.708,1.879c1.406,0.094,6.051-2.641,10.325-5.495"/>
			</g>
		</g>
		<path style="fill:#D9D9D9;stroke:#263238;stroke-linecap:round;stroke-miterlimit:10;" d="M126.79,222.009
			c-1.885-0.69-3.435-1.359-4.411-1.996c-3.847-2.509-2.509-8.864-2.509-8.864l-24.251-1.84c0,0,1.505,6.69-0.167,8.697
			c-0.5,0.6-1.846,1.486-3.678,2.537c1.774,4.5,10.362,25.303,17.225,24.557C115.044,244.443,123.458,228.723,126.79,222.009z"/>
		<path style="fill:#263238;" d="M119.871,211.149l-24.251-1.84c0,0,0.821,3.659,0.572,6.378c3.082,3.544,8.715,9.829,10.646,10.721
			c2.711,1.251,4.797,0,5.214-0.626c0.282-0.423,5.522-4.565,8.886-7.202C118.933,215.659,119.871,211.149,119.871,211.149z"/>
		<g>
			<path style="fill:#D9D9D9;stroke:#263238;stroke-linecap:round;stroke-miterlimit:10;" d="M90.603,186.564
				c0,0-1.505-2.174-2.676,0c-1.171,2.174,0,6.857,1.505,9.7c1.505,2.843,2.509,4.181,2.509,4.181l-0.502-13.547L90.603,186.564z"/>
			<path style="fill:#D9D9D9;stroke:#263238;stroke-linecap:round;stroke-miterlimit:10;" d="M128.066,187.4
				c0,0,0.502-3.01,2.676-1.171c2.174,1.84-0.836,8.864-1.338,10.202c-0.502,1.338-2.341,3.01-2.341,3.01v-10.035L128.066,187.4z"/>
			<g>
				<path style="fill:#D9D9D9;stroke:#263238;stroke-linecap:round;stroke-miterlimit:10;" d="M91.105,189.407
					c0,0,0.335,16.223,1.004,17.394c0.669,1.171,9.366,12.376,11.54,14.551c2.174,2.174,5.854,2.007,8.362,1.338
					c2.509-0.669,12.711-12.376,13.547-14.885c0.836-2.509,1.84-19.902,1.84-19.902s0.836-15.888,0-18.23
					c-0.836-2.341-28.599-1.338-31.275-0.669c-2.676,0.669-3.679,3.68-3.345,6.188c0.335,2.509-2.676,7.024-2.676,7.024
					L91.105,189.407z"/>
				<path style="fill:#263238;stroke:#263238;stroke-linecap:round;stroke-miterlimit:10;" d="M96.122,172.683
					c0,0-0.167,6.69-1.338,9.533c-1.171,2.843-3.178,2.676-3.178,2.676l-0.502,6.355l-2.007-7.693c0,0-0.335-16.557,0.334-20.237
					c0.669-3.68,7.359-4.348,7.359-4.348s-5.854-3.01-2.509-5.017c3.345-2.007,12.878,0.502,12.878,0.502s-1.338-3.345,4.683-3.345
					c6.021,0,11.874,5.352,13.882,7.861c2.007,2.509,2.341,3.679,2.341,3.679s0.836-5.352,2.676-1.338
					c1.84,4.014,1.84,8.195,1.171,13.212c-0.669,5.017-3.011,9.366-3.011,9.366l-2.174,9.7l-1.171-8.864
					c0,0-2.676-1.505-3.679-4.516c-1.004-3.01-1.338-6.69-1.338-6.69s-5.185,5.352-12.376,4.516
					C100.972,177.198,96.122,172.683,96.122,172.683z"/>
				<g>
					<path style="fill:none;stroke:#263238;stroke-linecap:round;stroke-miterlimit:10;" d="M112.847,190.912
						c0,0,0.502,14.216-1.171,15.219c-1.673,1.003-4.516-2.676-4.516-2.676"/>
					<path style="fill:none;stroke:#263238;stroke-linecap:round;stroke-miterlimit:10;" d="M102.979,208.808
						c0,0,5.854,3.345,13.213,0"/>
					<path style="fill:none;stroke:#263238;stroke-linecap:round;stroke-miterlimit:10;" d="M114.519,195.895
						c0,0,2.518,2.388,7.359,0.434"/>
					<path style="fill:none;stroke:#263238;stroke-width:2;stroke-linecap:round;stroke-miterlimit:10;" d="M114.017,190.578
						c0,0,3.345-3.512,9.868-1.171"/>
					<path style="fill:none;stroke:#263238;stroke-linecap:round;stroke-miterlimit:10;" d="M104.317,195.094
						c0,0-3.01,2.676-7.359,0.502"/>
					<path style="fill:none;stroke:#263238;stroke-width:2;stroke-linecap:round;stroke-miterlimit:10;" d="M106.324,190.076
						c0,0-5.686-3.847-9.868-1.673"/>
				</g>
			</g>
		</g>
		<g>
			<path style="fill:#263238;stroke:#263238;stroke-linecap:round;stroke-miterlimit:10;" d="M83.442,256.461l4.484,30.278
				c0.095,0.665,0.684,1.146,1.354,1.107l14.481-0.852c0.751-0.044,1.305-0.718,1.204-1.463l-4.328-30.563
				c-0.092-0.678-0.697-1.167-1.38-1.114l-14.637,1.137C83.877,255.048,83.337,255.722,83.442,256.461z"/>
			<g>
				<path style="fill:#92E3A9;stroke:#263238;stroke-linecap:round;stroke-miterlimit:10;" d="M51.057,288.702
					c0,0,0.41,18.112,1.581,24.133c1.171,6.021,5.519,8.362,11.038,3.01c5.519-5.352,19.568-23.916,19.568-23.916
					s7.526-2.007,10.704-3.01c3.178-1.004,7.526-6.69,7.526-6.69s3.01-1.673,3.178-3.01c0.167-1.338-1.338-1.84-1.338-1.84
					s2.509-0.335,2.509-1.505c0-1.171-5.185-2.676-7.024-2.676c-1.84,0-6.021,0-6.021,0s4.516-1.338,6.69-1.505
					c2.174-0.167,5.352,0.167,4.85-1.004c-0.502-1.171-2.676-1.672-5.854-2.341c-3.178-0.669-12.376,2.341-13.714,3.512
					c-1.338,1.171-6.523,12.711-6.523,12.711l-23.414,6.857"/>
				<path style="fill:#D9D9D9;stroke:#263238;stroke-linecap:round;stroke-miterlimit:10;" d="M104.652,279.219
					c0.167-1.338-1.338-1.84-1.338-1.84s2.509-0.334,2.509-1.505c0-1.171-5.185-2.676-7.024-2.676c-1.84,0-6.021,0-6.021,0
					s4.516-1.338,6.69-1.505c2.174-0.167,5.352,0.167,4.85-1.004c-0.502-1.171-2.676-1.672-5.854-2.341
					c-3.178-0.669-12.376,2.341-13.714,3.512c-1.338,1.171-6.523,12.711-6.523,12.711l-13.872,4.063
					c-1.34,2.689-2.412,6.393-1.013,10.153c1.8,4.838,5.191,6.718,8.795,7.332c5.514-6.799,11.107-14.19,11.107-14.19
					s7.526-2.007,10.704-3.01c3.178-1.004,7.526-6.69,7.526-6.69S104.484,280.556,104.652,279.219z"/>
				<path style="fill:none;stroke:#263238;stroke-linecap:round;stroke-miterlimit:10;" d="M89.934,278.55
					c0,0,5.017-1.84,13.38-1.171"/>
				<path style="fill:none;stroke:#263238;stroke-linecap:round;stroke-miterlimit:10;" d="M91.439,283.567
					c0,0,0.669-0.502,10.035-1.338"/>
			</g>
		</g>
		<g>
			<path style="fill:#92E3A9;stroke:#263238;stroke-linecap:round;stroke-miterlimit:10;" d="M61.468,450.945
				c0,0-1.883,6.906-6.121,11.301c-4.238,4.395-10.987,10.045-10.359,15.382s8.162,7.22,14.283,5.807
				c6.121-1.413,8.319-5.651,10.987-9.888c2.668-4.238,5.023-8.005,9.104-11.615c4.081-3.61,3.453-5.023,1.883-9.261
				c-1.57-4.238-2.198-5.807-2.198-5.807S65.706,453.3,61.468,450.945z"/>
			<path style="fill:#FFFFFF;stroke:#263238;stroke-linecap:round;stroke-miterlimit:10;" d="M79.361,461.932
				c3.498-3.095,3.533-4.579,2.484-7.609c-4.228,2.795-7.49,9.973-10.489,14.829c-3.296,5.337-6.906,12.243-15.539,13.028
				c-5.864,0.533-9.261-2.697-10.839-4.826c0.006,0.091-0.002,0.183,0.009,0.274c0.628,5.337,8.162,7.22,14.283,5.807
				c6.121-1.413,8.319-5.651,10.987-9.888C72.926,469.309,75.28,465.542,79.361,461.932z"/>
		</g>
		<path style="fill:#FFFFFF;stroke:#263238;stroke-linecap:round;stroke-miterlimit:10;" d="M88.667,335.271
			c0,0-13.378-10.033-26.569-6.875s-23.968,21.739-22.11,27.87c1.858,6.131,7.989,40.505,11.705,49.98
			c3.716,9.476,8.361,39.39,8.361,39.39s-0.557,0-0.743,1.672c-0.186,1.672,0.557,4.831,1.115,5.388s4.088,1.486,7.432,1.486
			c3.344,0,10.777-2.044,11.891-3.344s1.301-2.415,1.301-3.53c0-1.115-0.929-4.273-1.486-5.574
			c-0.557-1.301-1.301-7.618-1.301-8.175s-1.115-17.837-0.929-23.225c0.186-5.388,3.53-24.34,0.186-31.958
			c-3.344-7.618-5.574-18.952-5.574-18.952s3.902,5.202,11.706,4.831c7.804-0.372,15.607-3.159,15.607-3.159l5.388-0.186"/>
		<g>
			<path style="fill:#92E3A9;stroke:#263238;stroke-linecap:round;stroke-miterlimit:10;" d="M136.715,446.707
				c0,0,1.883,6.906,6.121,11.301c4.238,4.395,10.987,10.045,10.359,15.382c-0.628,5.337-8.162,7.22-14.283,5.808
				c-6.121-1.413-8.319-5.651-10.987-9.888c-2.668-4.238-5.023-8.005-9.104-11.615c-4.081-3.61-3.453-5.023-1.883-9.261
				c1.569-4.238,2.197-5.807,2.197-5.807S132.478,449.062,136.715,446.707z"/>
			<path style="fill:#FFFFFF;stroke:#263238;stroke-linecap:round;stroke-miterlimit:10;" d="M118.822,457.694
				c-3.498-3.095-3.533-4.579-2.484-7.608c4.228,2.795,7.49,9.973,10.489,14.829c3.296,5.337,6.906,12.243,15.539,13.028
				c5.864,0.533,9.261-2.697,10.84-4.826c-0.007,0.091,0.001,0.183-0.009,0.274c-0.628,5.337-8.162,7.22-14.283,5.808
				c-6.121-1.413-8.319-5.651-10.987-9.889C125.257,465.071,122.903,461.305,118.822,457.694z"/>
		</g>
		<path style="fill:#FFFFFF;stroke:#263238;stroke-linecap:round;stroke-miterlimit:10;" d="M122.483,336.757
			c0,0,16.722-14.307,32.329-8.361c12.676,4.829,27.313,23.597,25.455,29.728c-1.858,6.131-14.832,42.584-21.134,50.577
			c-6.302,7.993-19.414,35.278-19.414,35.278s0.534,0.161,0.227,1.816c-0.307,1.654-1.933,4.462-2.628,4.834
			c-0.695,0.372-4.343,0.238-7.544-0.73c-3.201-0.969-9.722-5.078-10.412-6.646c-0.69-1.568-0.545-2.689-0.222-3.756
			c0.323-1.067,2.127-3.821,3.038-4.904c0.91-1.083,3.452-6.914,3.613-7.448c0.161-0.533,4.042-18.289,5.426-23.5
			c1.383-5.211,0.743-16.722,4.088-24.34c3.344-7.618,9.662-19.881,9.662-19.881s-3.902,5.202-11.706,4.831
			c-7.804-0.372-15.607-3.159-15.607-3.159l-5.388-0.186"/>
		<g>
			<path style="fill:#92E3A9;stroke:#263238;stroke-linecap:round;stroke-miterlimit:10;" d="M148.805,265.672
				c0,0,13.312,13.056,14.817,14.059c1.505,1.004-0.502,1.673,0.836,3.01c1.338,1.338,3.345,3.178,3.345,3.178s-0.669,1.505,0,2.843
				c0.669,1.338,4.014,1.84,4.014,1.84l-15.82,30.261c0,0-12.209,1.003-15.052,1.003s-5.352,5.017-5.352,6.188
				c0,1.171-2.007,8.53-1.338,8.53c0.669,0,0.167,1.338,0.836,1.672c0.669,0.335,2.007-0.167,2.007-0.167s1.003,0,1.505,0
				c0.502,0,1.171,0,1.171,0s1.338,0.335,2.174-0.502c0.836-0.836,4.683-7.359,4.683-7.359s8.362,1.171,11.038,1.171
				c2.676,0,5.017-6.355,5.017-6.857c0-0.502,24.684-21.899,27.695-27.418c3.01-5.519,4.348-13.38,1.338-19.066
				c-3.01-5.686-14.817-20.582-16.155-23.091s-10.871-18.397-18.732-22.578c-7.861-4.181-13.714-4.516-13.714-4.516"/>
			<path style="fill:none;stroke:#263238;stroke-linecap:round;stroke-miterlimit:10;" d="M171.817,289.933
				c0,0,3.679-7.526,11.373-9.031"/>
			<path style="fill:none;stroke:#263238;stroke-linecap:round;stroke-miterlimit:10;" d="M178.297,278.189
				c-2.334,1.383-5.163,3.449-6.815,6.058"/>
			<path style="fill:none;stroke:#263238;stroke-linecap:round;stroke-miterlimit:10;" d="M182.186,276.219
				c0,0-0.755,0.302-1.887,0.874"/>
			<path style="fill:none;stroke:#263238;stroke-linecap:round;stroke-miterlimit:10;" d="M171.482,278.895
				c0,0-3.01,3.178-3.01,6.355"/>
			<path style="fill:#D9D9D9;stroke:#263238;stroke-linecap:round;stroke-miterlimit:10;" d="M168.969,295.51l-12.973,25.353
				c0,0-12.209,1.003-15.052,1.003s-5.352,5.017-5.352,6.188c0,1.171-2.007,8.53-1.338,8.53c0.669,0,0.167,1.338,0.836,1.672
				c0.669,0.335,2.007-0.167,2.007-0.167s1.003,0,1.505,0c0.502,0,1.171,0,1.171,0s1.338,0.335,2.174-0.502
				c0.836-0.836,4.683-7.359,4.683-7.359s8.362,1.171,11.038,1.171c2.676,0,5.017-6.355,5.017-6.857
				c0-0.424,19.218-16.344,25.735-25.385C181.328,290.437,172.425,293.94,168.969,295.51z"/>
			<path style="fill:none;stroke:#263238;stroke-linecap:round;stroke-miterlimit:10;" d="M134.254,336.584
				c0,0,3.512-10.202,5.185-11.875"/>
			<path style="fill:none;stroke:#263238;stroke-linecap:round;stroke-miterlimit:10;" d="M137.098,338.089
				c0,0,3.178-9.7,5.017-12.209"/>
			<path style="fill:none;stroke:#263238;stroke-linecap:round;stroke-miterlimit:10;" d="M139.773,338.089
				c0,0,3.345-8.697,4.683-10.369"/>
		</g>
	</g>
</g>
</svg>
